<svg width="16" height="16" viewBox="0 0 16 16" fill="none" xmlns="http://www.w3.org/2000/svg">
<path fill-rule="evenodd" clip-rule="evenodd" d="M8.15922 3.33268C8.89255 3.33268 9.49255 2.73268 9.49255 1.99935C9.49255 1.26602 8.89255 0.666016 8.15922 0.666016C7.42588 0.666016 6.82588 1.26602 6.82588 1.99935C6.82588 2.73268 7.42588 3.33268 8.15922 3.33268ZM3.82588 14.9993H5.22588L6.42588 9.66601L7.82588 10.9993V14.9993H9.15922V9.99935L7.75922 8.66602L8.15922 6.66602C8.60997 7.18611 9.06106 7.61604 9.59656 7.90891C10.3611 6.82096 9.59656 7.90891 10.3611 6.82096C9.72952 6.56292 9.32812 6.04492 8.95922 5.39935L8.29255 4.33268C8.02588 3.93268 7.62588 3.66602 7.15922 3.66602C6.95922 3.66602 6.86304 3.68008 6.62588 3.73268C6.38872 3.78528 6.2179 3.88757 6.2179 3.88757C4.52863 4.61204 3.2445 6.6926 3.33816 8.33268H4.49255C4.49255 7.08084 5.69255 5.59935 5.69255 5.59935L3.82588 14.9993ZM9.33334 8.92986L11.2453 6.19935L13.4297 7.72889C13.7313 7.94007 13.8046 8.35577 13.5934 8.65737L12.4462 10.2957C12.235 10.5973 11.8194 10.6706 11.5177 10.4594L9.33334 8.92986Z" fill="#1D2129"/>
</svg>
